<?xml version="1.0" encoding="UTF-8" standalone="no"?>
<!DOCTYPE svg PUBLIC "-//W3C//DTD SVG 1.1//EN" "http://www.w3.org/Graphics/SVG/1.1/DTD/svg11.dtd">
<svg width="100%" height="100%" viewBox="0 0 925 119" version="1.1" xmlns="http://www.w3.org/2000/svg" xmlns:xlink="http://www.w3.org/1999/xlink" xml:space="preserve" xmlns:serif="http://www.serif.com/" style="fill-rule:evenodd;clip-rule:evenodd;stroke-linejoin:round;stroke-miterlimit:2;">
    <g transform="matrix(1,0,0,1,-3685.79,-1038.45)">
        <g transform="matrix(4.16667,0,0,4.16667,2868.75,0)">
            <g transform="matrix(1,0,0,1,386.391,263.147)">
                <path d="M0,0.501L8.17,13.438L1.806,13.438L-4.523,3.338L-6.733,3.338L-6.733,13.438L-12.12,13.438L-12.12,-12.46L-6.733,-12.46L-6.733,-2.049L-4.751,-2.049L1.806,-12.46L8.17,-12.46L0,0.501ZM-58.783,-7.212L-53.92,-7.212C-51.843,-7.212 -50.154,-5.523 -50.154,-3.446C-50.154,-1.37 -51.843,0.32 -53.92,0.32L-58.783,0.32L-58.783,-7.212ZM-43.457,13.438L-49.166,4.373C-46.53,2.764 -44.767,-0.139 -44.767,-3.446C-44.767,-8.493 -48.873,-12.46 -53.92,-12.46L-64.17,-12.46L-64.17,13.438L-58.783,13.438L-58.783,5.707L-54.691,5.707L-49.821,13.438L-43.457,13.438ZM-153.632,-7.212L-148.769,-7.212C-146.693,-7.212 -145.003,-5.523 -145.003,-3.446C-145.003,-1.37 -146.693,0.32 -148.769,0.32L-153.632,0.32L-153.632,-7.212ZM-139.429,13.438L-144.853,4.825C-141.76,3.355 -139.616,0.2 -139.616,-3.446C-139.616,-8.493 -143.722,-12.46 -148.769,-12.46L-159.02,-12.46L-159.02,13.438L-153.632,13.438L-153.632,5.707L-150.663,5.707L-145.793,13.438L-139.429,13.438ZM-28.63,13.88C-34.489,13.88 -39.255,9.114 -39.255,3.256L-39.255,-12.46L-33.868,-12.46L-33.868,3.256C-33.868,6.144 -31.518,8.493 -28.63,8.493C-25.742,8.493 -23.393,6.144 -23.393,3.256L-23.393,-12.46L-18.006,-12.46L-18.006,3.256C-18.006,9.114 -22.772,13.88 -28.63,13.88M-80.7,-7.212L-80.7,-2.131L-72.171,-2.131L-72.171,3.256L-80.7,3.256L-80.7,13.438L-86.087,13.438L-86.087,-12.46L-68.928,-12.46L-68.928,-7.212L-80.7,-7.212ZM31.461,-6.968L23.694,-6.968L23.694,13.438L18.307,13.438L18.307,-6.968L10.541,-6.968L10.541,-12.46L31.461,-12.46L31.461,-6.968ZM-116.215,8.051L-116.215,13.438L-133.424,13.438L-133.424,-12.46L-116.265,-12.46L-116.265,-7.212L-128.037,-7.212L-128.037,-2.131L-119.507,-2.131L-119.507,3.256L-128.037,3.256L-128.037,8.051L-116.215,8.051ZM-104.942,0.32L-100.079,0.32C-98.002,0.32 -96.313,-1.37 -96.313,-3.446C-96.313,-5.523 -98.002,-7.212 -100.079,-7.212L-104.942,-7.212L-104.942,0.32ZM-104.942,13.438L-110.329,13.438L-110.329,-12.46L-100.079,-12.46C-95.032,-12.46 -90.926,-8.493 -90.926,-3.446C-90.926,1.601 -95.032,5.707 -100.079,5.707L-104.942,5.707L-104.942,13.438ZM-172.144,8.175C-173.385,8.802 -174.727,9.12 -176.133,9.12C-181.024,9.12 -185.003,5.141 -185.003,0.251C-185.003,-4.64 -181.024,-8.619 -176.133,-8.619C-174.768,-8.619 -173.462,-8.32 -172.25,-7.729L-171.873,-7.545L-179.58,0.163L-171.776,7.989L-172.144,8.175ZM-172.092,0.168L-164.135,-7.789L-166.114,-9.768C-168.79,-12.445 -172.349,-13.918 -176.133,-13.918C-183.946,-13.918 -190.302,-7.562 -190.302,0.251C-190.302,8.063 -183.946,14.419 -176.133,14.419C-172.308,14.419 -168.719,12.913 -166.026,10.179L-164.08,8.203L-172.092,0.168Z" style="fill:rgb(240,80,81);fill-rule:nonzero;"/>
            </g>
        </g>
    </g>
</svg>
