<?xml version="1.0" encoding="UTF-8" standalone="no"?>
<!DOCTYPE svg PUBLIC "-//W3C//DTD SVG 1.1//EN" "http://www.w3.org/Graphics/SVG/1.1/DTD/svg11.dtd">
<svg width="100%" height="100%" viewBox="0 0 110 119" version="1.1" xmlns="http://www.w3.org/2000/svg" xmlns:xlink="http://www.w3.org/1999/xlink" xml:space="preserve" xmlns:serif="http://www.serif.com/" style="fill-rule:evenodd;clip-rule:evenodd;stroke-linejoin:round;stroke-miterlimit:2;">
    <g transform="matrix(1,0,0,1,-2299.18,-888.105)">
        <g transform="matrix(4.16667,0,0,4.16667,0,0)">
            <g transform="matrix(0.153462,0,0,0.153462,569.96,219.389)">
                <path d="M0,103.278C-8.086,107.363 -16.832,109.435 -25.992,109.435C-57.861,109.435 -83.789,83.508 -83.789,51.639C-83.789,19.77 -57.861,-6.158 -25.992,-6.158C-17.096,-6.158 -8.583,-4.206 -0.689,-0.358L1.768,0.841L-48.455,51.066L2.401,102.065L0,103.278ZM0.343,51.098L52.19,-0.748L39.292,-13.646C21.854,-31.085 -1.332,-40.687 -25.992,-40.687C-76.901,-40.687 -118.319,0.731 -118.319,51.639C-118.319,102.547 -76.901,143.965 -25.992,143.965C-1.067,143.965 22.322,134.152 39.867,116.334L52.548,103.455L0.343,51.098Z" style="fill:white;fill-rule:nonzero;"/>
            </g>
        </g>
    </g>
</svg>
